<svg width="16" height="16" viewBox="0 0 16 16" fill="none" xmlns="http://www.w3.org/2000/svg">
<path d="M1.67515 7.99657C1.67515 8.34514 1.91629 8.59943 2.26457 8.59943L11.0837 8.59943L12.51 8.54571L10.3137 10.548L8.81372 12.0749C8.70657 12.182 8.65286 12.3426 8.65286 12.4966C8.65286 12.8314 8.90715 13.0794 9.23572 13.0794C9.39629 13.0794 9.53686 13.0189 9.67086 12.8917L14.124 8.44571C14.2577 8.31829 14.3249 8.16429 14.3249 7.99714C14.3249 7.83629 14.2577 7.68229 14.124 7.55486L9.67086 3.10857C9.53657 2.98143 9.39629 2.92114 9.23543 2.92114C8.90743 2.92114 8.65286 3.16886 8.65286 3.49686C8.65286 3.65771 8.70657 3.81829 8.81372 3.92543L10.3137 5.44543L12.5166 7.45457L11.0837 7.40086L2.26457 7.40086C1.91629 7.40086 1.67515 7.64829 1.67515 7.99657Z" fill="black"/>
</svg>
