<svg width="84" height="16" viewBox="0 0 84 16" fill="none" xmlns="http://www.w3.org/2000/svg">
<path d="M76 0L77.7961 5.52786H83.6085L78.9062 8.94427L80.7023 14.4721L76 11.0557L71.2977 14.4721L73.0938 8.94427L68.3915 5.52786H74.2039L76 0Z" fill="#01875F"/>
<path d="M8 0L9.79611 5.52786H15.6085L10.9062 8.94427L12.7023 14.4721L8 11.0557L3.29772 14.4721L5.09383 8.94427L0.391548 5.52786H6.20389L8 0Z" fill="#01875F"/>
<path d="M25 0L26.7961 5.52786H32.6085L27.9062 8.94427L29.7023 14.4721L25 11.0557L20.2977 14.4721L22.0938 8.94427L17.3915 5.52786H23.2039L25 0Z" fill="#01875F"/>
<path d="M42 0L43.7961 5.52786H49.6085L44.9062 8.94427L46.7023 14.4721L42 11.0557L37.2977 14.4721L39.0938 8.94427L34.3915 5.52786H40.2039L42 0Z" fill="#01875F"/>
<path d="M59 0L60.7961 5.52786H66.6085L61.9062 8.94427L63.7023 14.4721L59 11.0557L54.2977 14.4721L56.0938 8.94427L51.3915 5.52786H57.2039L59 0Z" fill="#01875F"/>
<mask id="mask0_2011_3" style="mask-type:alpha" maskUnits="userSpaceOnUse" x="68" y="0" width="16" height="15">
<path d="M76 0L77.7961 5.52786H83.6085L78.9062 8.94427L80.7023 14.4721L76 11.0557L71.2977 14.4721L73.0938 8.94427L68.3915 5.52786H74.2039L76 0Z" fill="#1B1B1B"/>
</mask>
<g mask="url(#mask0_2011_3)">
<rect x="76" width="8" height="16" fill="#F1F3F4"/>
</g>
</svg>
