<svg width="39" height="7" viewBox="0 0 39 7" fill="none" xmlns="http://www.w3.org/2000/svg">
<path d="M3.5 0L4.2858 2.41844H6.8287L4.77145 3.91312L5.55725 6.33156L3.5 4.83688L1.44275 6.33156L2.22855 3.91312L0.171302 2.41844H2.7142L3.5 0Z" fill="#01875F"/>
<path d="M11.5 0L12.2858 2.41844H14.8287L12.7714 3.91312L13.5572 6.33156L11.5 4.83688L9.44275 6.33156L10.2286 3.91312L8.1713 2.41844H10.7142L11.5 0Z" fill="#01875F"/>
<path d="M19.5 0L20.2858 2.41844H22.8287L20.7714 3.91312L21.5572 6.33156L19.5 4.83688L17.4428 6.33156L18.2286 3.91312L16.1713 2.41844H18.7142L19.5 0Z" fill="#01875F"/>
<path d="M27.5 0L28.2858 2.41844H30.8287L28.7714 3.91312L29.5572 6.33156L27.5 4.83688L25.4428 6.33156L26.2286 3.91312L24.1713 2.41844H26.7142L27.5 0Z" fill="#01875F"/>
<mask id="mask0_2012_4" style="mask-type:alpha" maskUnits="userSpaceOnUse" x="32" y="0" width="7" height="7">
<path d="M35.5 0L36.2858 2.41844H38.8287L36.7714 3.91312L37.5572 6.33156L35.5 4.83688L33.4428 6.33156L34.2286 3.91312L32.1713 2.41844H34.7142L35.5 0Z" fill="#1B1B1B"/>
</mask>
<g mask="url(#mask0_2012_4)">
<rect x="31" y="-4" width="8" height="11" fill="#F1F3F4"/>
</g>
</svg>
